<svg width="66" height="63" viewBox="0 0 66 63" fill="none" xmlns="http://www.w3.org/2000/svg">
<g filter="url(#filter0_d_623_3363)">
<rect x="7" y="7.05859" width="52" height="48.9412" rx="12.2353" fill="#FACB0B" shape-rendering="crispEdges"/>
<path d="M21.7621 18.5625H44.2378C45.6134 18.5625 46.9327 19.109 47.9054 20.0816C48.8781 21.0543 49.4245 22.3736 49.4245 23.7492V39.3093C49.4245 40.6849 48.8781 42.0042 47.9054 42.9769C46.9327 43.9496 45.6134 44.496 44.2378 44.496H21.7621C20.3865 44.496 19.0673 43.9496 18.0946 42.9769C17.1219 42.0042 16.5754 40.6849 16.5754 39.3093V23.7492C16.5754 22.3736 17.1219 21.0543 18.0946 20.0816C19.0673 19.109 20.3865 18.5625 21.7621 18.5625ZM21.7621 20.2914C20.8977 20.2914 20.137 20.5853 19.5491 21.104L33 29.8004L46.4508 21.104C45.863 20.5853 45.1023 20.2914 44.2378 20.2914H21.7621ZM33 31.8923L18.5291 22.5044C18.3908 22.8848 18.3043 23.317 18.3043 23.7492V39.3093C18.3043 40.2264 18.6686 41.1059 19.3171 41.7543C19.9656 42.4028 20.8451 42.7671 21.7621 42.7671H44.2378C45.1549 42.7671 46.0344 42.4028 46.6829 41.7543C47.3313 41.1059 47.6956 40.2264 47.6956 39.3093V23.7492C47.6956 23.317 47.6092 22.8848 47.4709 22.5044L33 31.8923Z" fill="black"/>
</g>
<defs>
<filter id="filter0_d_623_3363" x="0" y="0.0585938" width="66" height="62.9414" filterUnits="userSpaceOnUse" color-interpolation-filters="sRGB">
<feFlood flood-opacity="0" result="BackgroundImageFix"/>
<feColorMatrix in="SourceAlpha" type="matrix" values="0 0 0 0 0 0 0 0 0 0 0 0 0 0 0 0 0 0 127 0" result="hardAlpha"/>
<feOffset/>
<feGaussianBlur stdDeviation="3.5"/>
<feComposite in2="hardAlpha" operator="out"/>
<feColorMatrix type="matrix" values="0 0 0 0 0 0 0 0 0 0 0 0 0 0 0 0 0 0 0.1 0"/>
<feBlend mode="normal" in2="BackgroundImageFix" result="effect1_dropShadow_623_3363"/>
<feBlend mode="normal" in="SourceGraphic" in2="effect1_dropShadow_623_3363" result="shape"/>
</filter>
</defs>
</svg>
