<svg width="54" height="54" viewBox="0 0 54 54" fill="none" xmlns="http://www.w3.org/2000/svg">
<g filter="url(#filter0_d_617_2452)">
<rect x="7" y="7" width="40" height="40" rx="20" fill="white" fill-opacity="0.2" shape-rendering="crispEdges"/>
<path d="M32.3376 20.46C32.1002 20.46 31.8682 20.5304 31.6709 20.6622C31.4735 20.7941 31.3197 20.9815 31.2289 21.2008C31.1381 21.4201 31.1143 21.6613 31.1606 21.8941C31.2069 22.1269 31.3212 22.3407 31.489 22.5085C31.6569 22.6764 31.8707 22.7906 32.1035 22.8369C32.3362 22.8832 32.5775 22.8595 32.7968 22.7687C33.0161 22.6778 33.2035 22.524 33.3353 22.3267C33.4672 22.1293 33.5376 21.8973 33.5376 21.66C33.5376 21.3417 33.4111 21.0365 33.1861 20.8115C32.961 20.5864 32.6558 20.46 32.3376 20.46ZM36.9376 22.88C36.9181 22.0503 36.7627 21.2294 36.4776 20.45C36.2233 19.7831 35.8275 19.1793 35.3176 18.68C34.8224 18.1674 34.2171 17.7742 33.5476 17.53C32.7702 17.2362 31.9484 17.0772 31.1176 17.06C30.0576 17 29.7176 17 26.9976 17C24.2776 17 23.9376 17 22.8776 17.06C22.0467 17.0772 21.2249 17.2362 20.4476 17.53C19.7792 17.7766 19.1745 18.1696 18.6776 18.68C18.165 19.1752 17.7717 19.7804 17.5276 20.45C17.2337 21.2273 17.0748 22.0492 17.0576 22.88C16.9976 23.94 16.9976 24.28 16.9976 27C16.9976 29.72 16.9976 30.06 17.0576 31.12C17.0748 31.9508 17.2337 32.7727 17.5276 33.55C17.7717 34.2196 18.165 34.8248 18.6776 35.32C19.1745 35.8304 19.7792 36.2234 20.4476 36.47C21.2249 36.7638 22.0467 36.9228 22.8776 36.94C23.9376 37 24.2776 37 26.9976 37C29.7176 37 30.0576 37 31.1176 36.94C31.9484 36.9228 32.7702 36.7638 33.5476 36.47C34.2171 36.2258 34.8224 35.8326 35.3176 35.32C35.8298 34.8226 36.2259 34.2182 36.4776 33.55C36.7627 32.7706 36.9181 31.9497 36.9376 31.12C36.9376 30.06 36.9976 29.72 36.9976 27C36.9976 24.28 36.9976 23.94 36.9376 22.88ZM35.1376 31C35.1303 31.6348 35.0153 32.2637 34.7976 32.86C34.6379 33.2952 34.3814 33.6884 34.0476 34.01C33.7232 34.3405 33.3308 34.5964 32.8976 34.76C32.3013 34.9778 31.6723 35.0927 31.0376 35.1C30.0376 35.15 29.6676 35.16 27.0376 35.16C24.4076 35.16 24.0376 35.16 23.0376 35.1C22.3784 35.1123 21.7222 35.0109 21.0976 34.8C20.6833 34.6281 20.3089 34.3728 19.9976 34.05C19.6656 33.7287 19.4124 33.3352 19.2576 32.9C19.0134 32.2952 18.878 31.6519 18.8576 31C18.8576 30 18.7976 29.63 18.7976 27C18.7976 24.37 18.7976 24 18.8576 23C18.862 22.3511 18.9805 21.7079 19.2076 21.1C19.3836 20.6779 19.6538 20.3017 19.9976 20C20.3014 19.6562 20.6768 19.3831 21.0976 19.2C21.7071 18.98 22.3496 18.8651 22.9976 18.86C23.9976 18.86 24.3676 18.8 26.9976 18.8C29.6276 18.8 29.9976 18.8 30.9976 18.86C31.6323 18.8673 32.2613 18.9822 32.8576 19.2C33.312 19.3687 33.7199 19.6428 34.0476 20C34.3753 20.3072 34.6313 20.6827 34.7976 21.1C35.0198 21.7089 35.1348 22.3518 35.1376 23C35.1876 24 35.1976 24.37 35.1976 27C35.1976 29.63 35.1876 30 35.1376 31ZM26.9976 21.87C25.9834 21.872 24.9925 22.1745 24.1502 22.7394C23.3079 23.3043 22.6519 24.1062 22.2652 25.0438C21.8784 25.9813 21.7783 27.0125 21.9774 28.0069C22.1764 29.0014 22.6658 29.9145 23.3836 30.631C24.1015 31.3474 25.0156 31.835 26.0104 32.0321C27.0053 32.2293 28.0362 32.1271 28.973 31.7385C29.9098 31.35 30.7104 30.6924 31.2737 29.849C31.8369 29.0056 32.1376 28.0142 32.1376 27C32.1389 26.3251 32.0068 25.6566 31.7488 25.033C31.4908 24.4093 31.1121 23.8428 30.6344 23.3661C30.1567 22.8893 29.5895 22.5117 28.9654 22.2549C28.3412 21.9982 27.6725 21.8674 26.9976 21.87ZM26.9976 30.33C26.3389 30.33 25.6951 30.1347 25.1475 29.7688C24.5999 29.4029 24.1731 28.8828 23.921 28.2743C23.669 27.6659 23.6031 26.9963 23.7315 26.3503C23.86 25.7044 24.1772 25.111 24.6429 24.6453C25.1086 24.1796 25.702 23.8625 26.3479 23.734C26.9939 23.6055 27.6634 23.6714 28.2719 23.9235C28.8804 24.1755 29.4004 24.6023 29.7664 25.15C30.1323 25.6976 30.3276 26.3414 30.3276 27C30.3276 27.4373 30.2414 27.8703 30.0741 28.2743C29.9067 28.6784 29.6614 29.0454 29.3522 29.3547C29.043 29.6639 28.6759 29.9092 28.2719 30.0765C27.8679 30.2439 27.4349 30.33 26.9976 30.33Z" fill="black"/>
</g>
<defs>
<filter id="filter0_d_617_2452" x="0" y="0" width="54" height="54" filterUnits="userSpaceOnUse" color-interpolation-filters="sRGB">
<feFlood flood-opacity="0" result="BackgroundImageFix"/>
<feColorMatrix in="SourceAlpha" type="matrix" values="0 0 0 0 0 0 0 0 0 0 0 0 0 0 0 0 0 0 127 0" result="hardAlpha"/>
<feOffset/>
<feGaussianBlur stdDeviation="3.5"/>
<feComposite in2="hardAlpha" operator="out"/>
<feColorMatrix type="matrix" values="0 0 0 0 0 0 0 0 0 0 0 0 0 0 0 0 0 0 0.27 0"/>
<feBlend mode="normal" in2="BackgroundImageFix" result="effect1_dropShadow_617_2452"/>
<feBlend mode="normal" in="SourceGraphic" in2="effect1_dropShadow_617_2452" result="shape"/>
</filter>
</defs>
</svg>
