<svg width="66" height="64" viewBox="0 0 66 64" fill="none" xmlns="http://www.w3.org/2000/svg">
<g filter="url(#filter0_d_623_3375)">
<rect x="7" y="7.94141" width="52" height="48.9412" rx="12.2353" fill="#FACB0B" shape-rendering="crispEdges"/>
<path d="M33 48.4121L32.2308 47.6231C31.75 47.1847 20.5 35.0861 20.5 27.8094C20.5 21.497 26.0769 16.4121 33 16.4121C39.9231 16.4121 45.5 21.497 45.5 27.8094C45.5 35.0861 34.25 47.1847 33.7692 47.7107L33 48.4121ZM33 18.1655C27.1346 18.1655 22.4231 22.4614 22.4231 27.8094C22.4231 33.4203 30.5 42.8888 33 45.6943C35.5 42.8888 43.5769 33.4203 43.5769 27.8094C43.5769 22.4614 38.8654 18.1655 33 18.1655Z" fill="black"/>
<path d="M33.003 32.191C30.3107 32.191 28.1953 30.2622 28.1953 27.8074C28.1953 25.3526 30.3107 23.4238 33.003 23.4238C35.6953 23.4238 37.8107 25.3526 37.8107 27.8074C37.8107 30.2622 35.6953 32.191 33.003 32.191ZM33.003 25.1773C31.3684 25.1773 30.1184 26.317 30.1184 27.8074C30.1184 29.2978 31.3684 30.4375 33.003 30.4375C34.6376 30.4375 35.8876 29.2978 35.8876 27.8074C35.8876 26.317 34.6376 25.1773 33.003 25.1773Z" fill="black"/>
</g>
<defs>
<filter id="filter0_d_623_3375" x="0" y="0.941406" width="66" height="62.9414" filterUnits="userSpaceOnUse" color-interpolation-filters="sRGB">
<feFlood flood-opacity="0" result="BackgroundImageFix"/>
<feColorMatrix in="SourceAlpha" type="matrix" values="0 0 0 0 0 0 0 0 0 0 0 0 0 0 0 0 0 0 127 0" result="hardAlpha"/>
<feOffset/>
<feGaussianBlur stdDeviation="3.5"/>
<feComposite in2="hardAlpha" operator="out"/>
<feColorMatrix type="matrix" values="0 0 0 0 0 0 0 0 0 0 0 0 0 0 0 0 0 0 0.1 0"/>
<feBlend mode="normal" in2="BackgroundImageFix" result="effect1_dropShadow_623_3375"/>
<feBlend mode="normal" in="SourceGraphic" in2="effect1_dropShadow_623_3375" result="shape"/>
</filter>
</defs>
</svg>
