<svg width="66" height="63" viewBox="0 0 66 63" fill="none" xmlns="http://www.w3.org/2000/svg">
<g filter="url(#filter0_d_623_3369)">
<rect x="7" y="7" width="52" height="48.9412" rx="12.2353" fill="#FACB0B" shape-rendering="crispEdges"/>
<path d="M43.8281 43.9707C41.1948 43.9707 38.4948 43.3113 35.7281 41.9926C32.9615 40.6738 30.3911 38.8223 28.0172 36.4379C25.6432 34.0535 23.7969 31.4832 22.4781 28.727C21.1594 25.9707 20.5 23.2759 20.5 20.6426C20.5 20.1655 20.6563 19.7681 20.9688 19.4504C21.2813 19.1327 21.6719 18.9728 22.1406 18.9707H26.0047C26.4297 18.9707 26.8005 19.1046 27.1172 19.3723C27.4339 19.64 27.6479 19.9832 27.7594 20.402L28.5344 24.127C28.6073 24.5645 28.5943 24.9462 28.4953 25.2723C28.3964 25.5983 28.2229 25.8655 27.975 26.0738L24.5469 29.2707C25.1885 30.4342 25.8974 31.5155 26.6734 32.5145C27.4495 33.5134 28.2776 34.4598 29.1578 35.3535C30.0641 36.2598 31.0401 37.1035 32.0859 37.8848C33.1318 38.665 34.2797 39.4014 35.5297 40.0941L38.8719 36.6926C39.126 36.4186 39.412 36.2379 39.7297 36.1504C40.0464 36.0639 40.3974 36.0467 40.7828 36.0988L44.0687 36.7707C44.4937 36.8749 44.8385 37.0889 45.1031 37.4129C45.3677 37.7368 45.5 38.1077 45.5 38.5254V42.3301C45.5 42.7988 45.3406 43.1895 45.0219 43.502C44.7031 43.8145 44.3042 43.9707 43.8281 43.9707ZM23.8125 27.8051L26.8125 25.0473C26.9115 24.9671 26.976 24.8566 27.0062 24.716C27.0375 24.5754 27.0323 24.4452 26.9906 24.3254L26.2984 21.0129C26.2578 20.8535 26.1875 20.7337 26.0875 20.6535C25.9875 20.5733 25.8578 20.5332 25.6984 20.5332H22.4922C22.3724 20.5332 22.2724 20.5733 22.1922 20.6535C22.112 20.7337 22.0719 20.8337 22.0719 20.9535C22.1021 22.0212 22.2693 23.1358 22.5734 24.2973C22.8776 25.4587 23.2896 26.628 23.8125 27.8051ZM37.0172 40.827C38.0734 41.3499 39.1984 41.7369 40.3922 41.9879C41.588 42.2379 42.6297 42.3717 43.5172 42.3895C43.637 42.3895 43.737 42.3493 43.8172 42.2691C43.8974 42.1889 43.9375 42.0895 43.9375 41.9707V38.8332C43.9375 38.6738 43.8974 38.5436 43.8172 38.4426C43.737 38.3426 43.6172 38.2728 43.4578 38.2332L40.5672 37.641C40.4464 37.6004 40.3406 37.5952 40.25 37.6254C40.1604 37.6566 40.0656 37.7217 39.9656 37.8207L37.0172 40.827Z" fill="black"/>
</g>
<defs>
<filter id="filter0_d_623_3369" x="0" y="0" width="66" height="62.9414" filterUnits="userSpaceOnUse" color-interpolation-filters="sRGB">
<feFlood flood-opacity="0" result="BackgroundImageFix"/>
<feColorMatrix in="SourceAlpha" type="matrix" values="0 0 0 0 0 0 0 0 0 0 0 0 0 0 0 0 0 0 127 0" result="hardAlpha"/>
<feOffset/>
<feGaussianBlur stdDeviation="3.5"/>
<feComposite in2="hardAlpha" operator="out"/>
<feColorMatrix type="matrix" values="0 0 0 0 0 0 0 0 0 0 0 0 0 0 0 0 0 0 0.1 0"/>
<feBlend mode="normal" in2="BackgroundImageFix" result="effect1_dropShadow_623_3369"/>
<feBlend mode="normal" in="SourceGraphic" in2="effect1_dropShadow_623_3369" result="shape"/>
</filter>
</defs>
</svg>
