<svg width="11" height="12" viewBox="0 0 11 12" fill="none" xmlns="http://www.w3.org/2000/svg">
<path d="M6.91247 4.1556C6.60716 3.44497 5.59966 3.44497 5.29435 4.1556L4.7804 5.35186C4.69136 5.5591 4.52619 5.72428 4.31894 5.81332L3.12268 6.32727C2.41205 6.63258 2.41206 7.64008 3.12268 7.94539L4.31894 8.45935C4.52619 8.54839 4.69136 8.71356 4.7804 8.92081L5.29436 10.1171C5.59967 10.8277 6.60717 10.8277 6.91248 10.1171L7.42643 8.9208C7.51547 8.71356 7.68064 8.54839 7.88789 8.45935L9.08415 7.94539C9.79478 7.64008 9.79478 6.63258 9.08415 6.32727L7.88789 5.81332C7.68064 5.72428 7.51547 5.5591 7.42643 5.35186L6.91247 4.1556Z" fill="#4A4A48"/>
<path d="M2.78553 0.913815C2.63737 0.568975 2.14847 0.568974 2.00032 0.913814L1.75092 1.49431C1.70771 1.59488 1.62755 1.67503 1.52699 1.71824L0.946488 1.96764C0.601648 2.1158 0.601647 2.6047 0.946488 2.75286L1.52699 3.00226C1.62755 3.04547 1.70771 3.12562 1.75092 3.22619L2.00032 3.80669C2.14847 4.15153 2.63737 4.15153 2.78553 3.80669L3.03493 3.22619C3.07814 3.12562 3.15829 3.04547 3.25886 3.00226L3.83936 2.75286C4.1842 2.6047 4.1842 2.1158 3.83936 1.96764L3.25886 1.71824C3.15829 1.67503 3.07814 1.59488 3.03493 1.49431L2.78553 0.913815Z" fill="#4A4A48"/>
</svg>
