<svg width="1280" height="832" viewBox="0 0 1280 832" fill="none" xmlns="http://www.w3.org/2000/svg">
<path d="M1281 0H1.00098V832H1281V0Z" stroke="#B3B3B3" stroke-opacity="0.33"/>
<path d="M1146.81 87.2212H135.188V744.778H1146.81V87.2212Z" stroke="#B3B3B3" stroke-opacity="0.33"/>
<path d="M1028.41 164.181H253.588V667.818H1028.41V164.181Z" stroke="#B3B3B3" stroke-opacity="0.33"/>
<path d="M925.801 230.88H356.201V601.12H925.801V230.88Z" stroke="#B3B3B3" stroke-opacity="0.33"/>
<path d="M838.975 287.317H443.028V544.683H838.975V287.317Z" stroke="#B3B3B3" stroke-opacity="0.33"/>
<path d="M767.935 333.493H514.068V498.506H767.935V333.493Z" stroke="#B3B3B3" stroke-opacity="0.33"/>
<path d="M712.681 369.408H569.321V462.592H712.681V369.408Z" stroke="#B3B3B3" stroke-opacity="0.33"/>
<path d="M673.215 395.061H608.788V436.938H673.215V395.061Z" stroke="#B3B3B3" stroke-opacity="0.33"/>
<path d="M649.535 410.453H632.468V421.546H649.535V410.453Z" stroke="#B3B3B3" stroke-opacity="0.33"/>
<path d="M641.641 415.584H640.361V416.416H641.641V415.584Z" stroke="#B3B3B3" stroke-opacity="0.33"/>
<path d="M640.361 416.416L1.00103 832" stroke="#B3B3B3" stroke-opacity="0.33"/>
<path d="M640.458 416.416L139.552 832" stroke="#B3B3B3" stroke-opacity="0.33"/>
<path d="M640.558 416.416L254.052 832" stroke="#B3B3B3" stroke-opacity="0.33"/>
<path d="M640.656 416.416L352.903 832" stroke="#B3B3B3" stroke-opacity="0.33"/>
<path d="M640.756 416.416L441.523 832" stroke="#B3B3B3" stroke-opacity="0.33"/>
<path d="M640.853 416.416L523.686 832" stroke="#B3B3B3" stroke-opacity="0.33"/>
<path d="M640.951 416.416L602.277 832" stroke="#B3B3B3" stroke-opacity="0.33"/>
<path d="M641.051 416.416L679.725 832" stroke="#B3B3B3" stroke-opacity="0.33"/>
<path d="M641.148 416.416L758.315 832" stroke="#B3B3B3" stroke-opacity="0.33"/>
<path d="M641.248 416.416L840.481 832" stroke="#B3B3B3" stroke-opacity="0.33"/>
<path d="M641.346 416.416L929.098 832" stroke="#B3B3B3" stroke-opacity="0.33"/>
<path d="M641.443 416.416L1027.95 832" stroke="#B3B3B3" stroke-opacity="0.33"/>
<path d="M641.543 416.416L1142.45 832" stroke="#B3B3B3" stroke-opacity="0.33"/>
<path d="M641.641 416.416L1281 832" stroke="#B3B3B3" stroke-opacity="0.33"/>
<path d="M640.361 415.584L1.00128 0.000201583" stroke="#B3B3B3" stroke-opacity="0.33"/>
<path d="M640.361 415.647L1.00139 90.0584" stroke="#B3B3B3" stroke-opacity="0.33"/>
<path d="M640.361 415.712L1.00133 164.483" stroke="#B3B3B3" stroke-opacity="0.33"/>
<path d="M640.361 415.776L1.00143 228.737" stroke="#B3B3B3" stroke-opacity="0.33"/>
<path d="M640.361 415.841L1.00144 286.34" stroke="#B3B3B3" stroke-opacity="0.33"/>
<path d="M640.361 415.904L1.00147 339.746" stroke="#B3B3B3" stroke-opacity="0.33"/>
<path d="M640.361 415.968L1.0015 390.83" stroke="#B3B3B3" stroke-opacity="0.33"/>
<path d="M640.361 416.033L1.0015 441.171" stroke="#B3B3B3" stroke-opacity="0.33"/>
<path d="M640.361 416.096L1.00147 492.255" stroke="#B3B3B3" stroke-opacity="0.33"/>
<path d="M640.361 416.161L1.00144 545.662" stroke="#B3B3B3" stroke-opacity="0.33"/>
<path d="M640.361 416.224L1.00143 603.263" stroke="#B3B3B3" stroke-opacity="0.33"/>
<path d="M640.361 416.288L1.00133 667.517" stroke="#B3B3B3" stroke-opacity="0.33"/>
<path d="M640.361 416.353L1.00139 741.942" stroke="#B3B3B3" stroke-opacity="0.33"/>
<path d="M640.361 416.416L1.00128 832" stroke="#B3B3B3" stroke-opacity="0.33"/>
<path d="M641.641 415.584L1281 0.000157014" stroke="#B3B3B3" stroke-opacity="0.33"/>
<path d="M641.543 415.584L1142.45 8.5377e-05" stroke="#B3B3B3" stroke-opacity="0.33"/>
<path d="M641.443 415.584L1027.95 4.01551e-05" stroke="#B3B3B3" stroke-opacity="0.33"/>
<path d="M641.346 415.584L929.098 0.000185588" stroke="#B3B3B3" stroke-opacity="0.33"/>
<path d="M641.246 415.584L840.478 0.000184371" stroke="#B3B3B3" stroke-opacity="0.33"/>
<path d="M641.148 415.584L758.315 0.000117633" stroke="#B3B3B3" stroke-opacity="0.33"/>
<path d="M641.051 415.584L679.725 0.000186388" stroke="#B3B3B3" stroke-opacity="0.33"/>
<path d="M640.951 415.584L602.277 0.000186388" stroke="#B3B3B3" stroke-opacity="0.33"/>
<path d="M640.853 415.584L523.686 0.000117633" stroke="#B3B3B3" stroke-opacity="0.33"/>
<path d="M640.753 415.584L441.52 0.000184371" stroke="#B3B3B3" stroke-opacity="0.33"/>
<path d="M640.656 415.584L352.903 0.000185588" stroke="#B3B3B3" stroke-opacity="0.33"/>
<path d="M640.558 415.584L254.052 4.01551e-05" stroke="#B3B3B3" stroke-opacity="0.33"/>
<path d="M640.458 415.584L139.551 8.5377e-05" stroke="#B3B3B3" stroke-opacity="0.33"/>
<path d="M640.361 415.584L1.00078 0.000157014" stroke="#B3B3B3" stroke-opacity="0.33"/>
<path d="M641.64 416.417L1281 832" stroke="#B3B3B3" stroke-opacity="0.33"/>
<path d="M641.64 416.353L1281 741.942" stroke="#B3B3B3" stroke-opacity="0.33"/>
<path d="M641.64 416.288L1281 667.517" stroke="#B3B3B3" stroke-opacity="0.33"/>
<path d="M641.64 416.225L1281 603.264" stroke="#B3B3B3" stroke-opacity="0.33"/>
<path d="M641.64 416.16L1281 545.661" stroke="#B3B3B3" stroke-opacity="0.33"/>
<path d="M641.64 416.096L1281 492.255" stroke="#B3B3B3" stroke-opacity="0.33"/>
<path d="M641.64 416.033L1281 441.171" stroke="#B3B3B3" stroke-opacity="0.33"/>
<path d="M641.64 415.968L1281 390.83" stroke="#B3B3B3" stroke-opacity="0.33"/>
<path d="M641.64 415.905L1281 339.746" stroke="#B3B3B3" stroke-opacity="0.33"/>
<path d="M641.64 415.84L1281 286.339" stroke="#B3B3B3" stroke-opacity="0.33"/>
<path d="M641.64 415.776L1281 228.737" stroke="#B3B3B3" stroke-opacity="0.33"/>
<path d="M641.64 415.713L1281 164.484" stroke="#B3B3B3" stroke-opacity="0.33"/>
<path d="M641.64 415.648L1281 90.0589" stroke="#B3B3B3" stroke-opacity="0.33"/>
<path d="M641.64 415.584L1281 0.000689864" stroke="#B3B3B3" stroke-opacity="0.33"/>
</svg>
