<svg width="54" height="54" viewBox="0 0 54 54" fill="none" xmlns="http://www.w3.org/2000/svg">
<g filter="url(#filter0_d_704_690)">
<rect x="7" y="7" width="40" height="40" rx="20" fill="white" fill-opacity="0.2" shape-rendering="crispEdges"/>
<path d="M31.7969 28.4922C31.7579 28.4735 30.2998 27.7555 30.0408 27.6623C29.935 27.6243 29.8217 27.5872 29.7011 27.5872C29.5043 27.5872 29.3389 27.6853 29.21 27.878C29.0644 28.0945 28.6235 28.6099 28.4872 28.7639C28.4695 28.7842 28.4452 28.8085 28.4306 28.8085C28.4176 28.8085 28.1919 28.7156 28.1236 28.6859C26.5595 28.0065 25.3723 26.3727 25.2095 26.0971C25.1863 26.0575 25.1853 26.0395 25.1851 26.0395C25.1908 26.0186 25.2434 25.9658 25.2706 25.9386C25.35 25.8601 25.436 25.7565 25.5193 25.6563C25.5587 25.6088 25.5982 25.5613 25.6369 25.5165C25.7577 25.376 25.8115 25.2669 25.8738 25.1405L25.9065 25.0749C26.0587 24.7725 25.9287 24.5173 25.8867 24.4349C25.8522 24.3659 25.2365 22.8801 25.1711 22.724C25.0137 22.3473 24.8057 22.1719 24.5167 22.1719C24.4898 22.1719 24.5167 22.1719 24.4042 22.1766C24.2672 22.1824 23.5215 22.2806 23.1917 22.4884C22.842 22.7089 22.2505 23.4116 22.2505 24.6475C22.2505 25.7597 22.9563 26.8099 23.2594 27.2093C23.2669 27.2194 23.2807 27.2399 23.3008 27.2692C24.4614 28.9641 25.9082 30.2203 27.3749 30.8062C28.7869 31.3702 29.4556 31.4354 29.8357 31.4354H29.8358C29.9955 31.4354 30.1234 31.4228 30.2361 31.4117L30.3077 31.4049C30.7955 31.3617 31.8674 30.8062 32.1113 30.1286C32.3034 29.5949 32.354 29.0118 32.2262 28.8002C32.1387 28.6563 31.9878 28.5839 31.7969 28.4922Z" fill="black"/>
<path d="M27.1751 17C21.7585 17 17.3517 21.3736 17.3517 26.7495C17.3517 28.4883 17.817 30.1903 18.6985 31.6799L17.0113 36.6569C16.9799 36.7497 17.0033 36.8523 17.0719 36.9221C17.1214 36.9727 17.1886 37 17.2573 37C17.2836 37 17.3101 36.996 17.3359 36.9878L22.5255 35.3387C23.9457 36.0975 25.5507 36.498 27.1751 36.498C32.5913 36.4981 36.9976 32.1249 36.9976 26.7495C36.9976 21.3736 32.5913 17 27.1751 17ZM27.1751 34.4671C25.6466 34.4671 24.1661 34.0258 22.8935 33.1907C22.8507 33.1626 22.8011 33.1482 22.7511 33.1482C22.7246 33.1482 22.6981 33.1522 22.6724 33.1604L20.0727 33.9868L20.9119 31.5108C20.939 31.4307 20.9255 31.3423 20.8755 31.274C19.9064 29.9499 19.3941 28.3854 19.3941 26.7495C19.3941 22.4935 22.8846 19.0309 27.175 19.0309C31.4649 19.0309 34.955 22.4935 34.955 26.7495C34.9551 31.0051 31.465 34.4671 27.1751 34.4671Z" fill="black"/>
</g>
<defs>
<filter id="filter0_d_704_690" x="0" y="0" width="54" height="54" filterUnits="userSpaceOnUse" color-interpolation-filters="sRGB">
<feFlood flood-opacity="0" result="BackgroundImageFix"/>
<feColorMatrix in="SourceAlpha" type="matrix" values="0 0 0 0 0 0 0 0 0 0 0 0 0 0 0 0 0 0 127 0" result="hardAlpha"/>
<feOffset/>
<feGaussianBlur stdDeviation="3.5"/>
<feComposite in2="hardAlpha" operator="out"/>
<feColorMatrix type="matrix" values="0 0 0 0 0 0 0 0 0 0 0 0 0 0 0 0 0 0 0.27 0"/>
<feBlend mode="normal" in2="BackgroundImageFix" result="effect1_dropShadow_704_690"/>
<feBlend mode="normal" in="SourceGraphic" in2="effect1_dropShadow_704_690" result="shape"/>
</filter>
</defs>
</svg>
