<svg width="54" height="54" viewBox="0 0 54 54" fill="none" xmlns="http://www.w3.org/2000/svg">
<g filter="url(#filter0_d_617_2454)">
<rect x="7" y="7" width="40" height="40" rx="20" fill="white" fill-opacity="0.2" shape-rendering="crispEdges"/>
<path fill-rule="evenodd" clip-rule="evenodd" d="M36.6721 18.8968C37.106 18.4629 37.106 17.7594 36.6721 17.3254C36.2382 16.8915 35.5347 16.8915 35.1008 17.3254L28.4953 23.9309L23.7458 17.4541C23.5365 17.1686 23.2037 17 22.8498 17H18.1087C17.69 17 17.3068 17.2354 17.1176 17.6089C16.9283 17.9824 16.9651 18.4305 17.2127 18.7682L24.1702 28.256L17.323 35.1032C16.8891 35.5371 16.8891 36.2407 17.323 36.6746C17.7569 37.1084 18.4604 37.1084 18.8943 36.6746L25.4998 30.0691L30.2493 36.546C30.4587 36.8313 30.7914 37 31.1453 37H35.8864C36.3051 37 36.6883 36.7647 36.8776 36.3911C37.0668 36.0177 37.0301 35.5694 36.7824 35.2318L29.8249 25.744L36.6721 18.8968ZM27.409 26.2072C27.4433 26.2644 27.4832 26.3191 27.5288 26.3707L33.6938 34.7778H31.7084L20.3013 19.2222H22.2867L27.409 26.2072Z" fill="black"/>
</g>
<defs>
<filter id="filter0_d_617_2454" x="0" y="0" width="54" height="54" filterUnits="userSpaceOnUse" color-interpolation-filters="sRGB">
<feFlood flood-opacity="0" result="BackgroundImageFix"/>
<feColorMatrix in="SourceAlpha" type="matrix" values="0 0 0 0 0 0 0 0 0 0 0 0 0 0 0 0 0 0 127 0" result="hardAlpha"/>
<feOffset/>
<feGaussianBlur stdDeviation="3.5"/>
<feComposite in2="hardAlpha" operator="out"/>
<feColorMatrix type="matrix" values="0 0 0 0 0 0 0 0 0 0 0 0 0 0 0 0 0 0 0.27 0"/>
<feBlend mode="normal" in2="BackgroundImageFix" result="effect1_dropShadow_617_2454"/>
<feBlend mode="normal" in="SourceGraphic" in2="effect1_dropShadow_617_2454" result="shape"/>
</filter>
</defs>
</svg>
